# Blender 4.0.2
# www.blender.org
mtllib world1.mtl
o Plane
v -11.084763 -0.000000 12.549459
v 10.981132 0.000000 12.003119
v -10.981132 0.000000 -10.981132
v -5.419854 0.000000 12.003119
v -5.419854 0.000000 -10.981132
v -10.981132 0.000000 8.040816
v 10.981132 -0.551382 8.040816
v -5.419854 0.000000 8.040816
v 0.242202 0.000000 12.003119
v 0.242202 -0.551382 8.040816
v 10.981132 -0.551382 -0.735659
v -5.419854 0.000000 -0.735659
v -10.981132 0.000000 -0.735660
v 0.242202 -0.551382 -0.735659
v -8.200493 0.000000 -10.981132
v -8.200493 0.000000 12.003119
v -8.200493 0.000000 8.040816
v -8.200493 0.000000 -0.735660
v -2.588826 -0.551382 -10.981132
v -2.588826 0.000000 8.040816
v -2.588826 0.000000 12.003119
v -2.588826 -0.551382 -0.735659
v -13.538727 0.576617 8.040816
v -13.538727 0.576617 -0.735660
v -10.563770 0.000000 17.935547
v 10.981132 0.000000 19.603163
v -5.419854 0.000000 19.603163
v 0.242202 0.000000 19.603163
v -8.200493 0.000000 19.603163
v -2.588826 0.000000 19.603163
v -15.856246 0.576617 9.740224
v -15.856246 0.576617 -2.435068
v 10.981132 -0.551382 -5.858395
v -5.419854 0.000000 -5.858395
v 0.242202 -0.551382 -5.858395
v -10.981132 0.000000 -5.858396
v -8.200493 0.000000 -5.858396
v -2.588826 -0.551382 -5.858395
v -21.775000 0.576617 13.233656
v -21.775000 0.576617 -5.812202
v -28.531677 0.576617 13.233656
v -28.531677 0.576617 -5.812202
v -34.294418 0.576617 9.606857
v -34.294418 0.576617 -2.185405
v -10.981132 0.000000 -16.942406
v 10.981131 -0.551382 -16.942406
v -5.419854 0.000000 -16.942406
v 0.242202 -0.551382 -16.942406
v -8.200493 0.000000 -16.942406
v -2.588826 -0.551382 -16.942406
vn -0.0000 1.0000 -0.0000
vn -0.0000 0.9905 -0.1378
vn 0.0967 0.9929 -0.0691
vn 0.0969 0.9948 -0.0312
vn 0.1912 0.9816 -0.0000
vn 0.2199 0.9755 -0.0000
vn 0.2199 0.9755 0.0051
vn 0.0666 0.9936 0.0908
vn 0.0601 0.9948 -0.0820
vn -0.0000 -1.0000 -0.0000
vn -0.1912 -0.9816 -0.0000
vn -0.2199 -0.9755 -0.0000
vn -0.1908 -0.9797 0.0615
vn -0.0000 -0.9905 0.1378
vn -0.1271 -0.9918 0.0123
vn -0.0300 -0.9983 -0.0509
vt 0.511028 0.766748
vt 1.000000 0.766748
vt 1.000000 1.000000
vt 0.511028 1.000000
vt 0.126610 0.766748
vt 0.253220 0.766748
vt 0.253220 1.000000
vt 0.126610 1.000000
vt 0.126610 0.000000
vt 0.253220 0.000000
vt 0.253220 0.133880
vt 0.126610 0.133880
vt 0.511028 0.000000
vt 1.000000 0.000000
vt 1.000000 0.133880
vt 0.511028 0.133880
vt 0.382124 0.000000
vt 0.382124 0.133880
vt 0.382124 0.766748
vt 0.382124 1.000000
vt 0.511028 0.533496
vt 0.382124 0.533496
vt 0.253220 0.533496
vt 0.126610 0.533496
vt 1.000000 0.533497
vt 0.000000 0.133880
vt 0.000000 0.533496
vt 0.000000 0.000000
vt 0.000000 0.766748
vt 0.000000 1.000000
s 0
f 35/1/1 33/2/1 46/3/1 48/4/1
f 37/5/1 34/6/1 5/7/1 15/8/1
f 16/9/1 4/10/1 8/11/1 17/12/1
f 9/13/2 2/14/2 7/15/2 10/16/2
f 21/17/3 9/13/3 10/16/3 20/18/3
f 38/19/1 35/1/1 48/4/1 19/20/1
f 20/18/4 10/16/4 14/21/4 22/22/4
f 17/12/1 8/11/1 12/23/1 18/24/1
f 10/16/1 7/15/1 11/25/1 14/21/1
f 6/26/1 17/12/1 18/24/1 13/27/1
f 1/28/1 16/9/1 17/12/1 6/26/1
f 36/29/1 37/5/1 15/8/1 3/30/1
f 8/11/4 20/18/4 22/22/4 12/23/4
f 34/6/5 38/19/5 19/20/5 5/7/5
f 4/10/1 21/17/1 20/18/1 8/11/1
f 6/26/6 13/27/6 24/27/6 23/26/6
f 4/10/1 16/9/1 29/9/1 27/10/1
f 21/17/1 4/10/1 27/10/1 30/17/1
f 16/9/1 1/28/1 25/28/1 29/9/1
f 2/14/1 9/13/1 28/13/1 26/14/1
f 9/13/1 21/17/1 30/17/1 28/13/1
f 23/26/1 24/27/1 32/27/1 31/26/1
f 12/23/5 22/22/5 38/19/5 34/6/5
f 13/27/1 18/24/1 37/5/1 36/29/1
f 22/22/1 14/21/1 35/1/1 38/19/1
f 18/24/1 12/23/1 34/6/1 37/5/1
f 14/21/1 11/25/1 33/2/1 35/1/1
f 13/27/6 36/29/6 24/27/6
f 6/26/7 23/26/7 1/28/7
f 31/26/1 32/27/1 40/27/1 39/26/1
f 39/26/1 40/27/1 42/27/1 41/26/1
f 41/26/1 42/27/1 44/27/1 43/26/1
f 23/26/8 31/26/8 1/28/8
f 24/27/9 36/29/9 32/27/9
f 33/28/10 48/28/10 46/28/10
f 33/28/10 35/28/10 48/28/10
f 35/28/10 19/28/10 48/28/10
f 35/28/10 38/28/10 19/28/10
f 38/28/11 5/28/11 19/28/11
f 38/28/11 34/28/11 5/28/11
f 34/28/10 37/28/10 5/28/10
f 37/28/10 3/28/10 15/28/10
f 37/28/10 36/28/10 3/28/10
f 34/28/10 18/28/10 37/28/10
f 18/28/10 36/28/10 37/28/10
f 18/28/10 13/28/10 36/28/10
f 11/28/10 35/28/10 33/28/10
f 11/28/10 14/28/10 35/28/10
f 14/28/10 38/28/10 35/28/10
f 14/28/10 22/28/10 38/28/10
f 22/28/11 34/28/11 38/28/11
f 22/28/11 12/28/11 34/28/11
f 12/28/10 18/28/10 34/28/10
f 32/28/10 39/28/10 40/28/10
f 39/28/10 42/28/10 40/28/10
f 39/28/10 41/28/10 42/28/10
f 41/28/10 44/28/10 42/28/10
f 24/28/10 31/28/10 32/28/10
f 31/28/10 39/28/10 32/28/10
f 41/28/10 43/28/10 44/28/10
f 18/28/10 6/28/10 13/28/10
f 6/28/12 24/28/12 13/28/12
f 6/28/12 23/28/12 24/28/12
f 23/28/10 31/28/10 24/28/10
f 12/28/10 17/28/10 18/28/10
f 17/28/10 6/28/10 18/28/10
f 7/28/10 14/28/10 11/28/10
f 7/28/10 10/28/10 14/28/10
f 10/28/10 22/28/10 14/28/10
f 10/28/13 20/28/13 22/28/13
f 20/28/13 12/28/13 22/28/13
f 20/28/10 8/28/10 12/28/10
f 8/28/10 17/28/10 12/28/10
f 2/28/14 10/28/14 7/28/14
f 2/28/14 9/28/14 10/28/14
f 9/28/14 21/28/14 10/28/14
f 37/28/10 15/28/10 5/28/10
f 21/28/10 8/28/10 20/28/10
f 21/28/10 4/28/10 8/28/10
f 4/28/10 17/28/10 8/28/10
f 4/28/10 16/28/10 17/28/10
f 16/28/10 6/28/10 17/28/10
f 16/28/10 1/28/10 6/28/10
f 1/28/15 25/28/15 31/28/15
f 26/28/10 9/28/10 2/28/10
f 26/28/10 28/28/10 9/28/10
f 28/28/10 21/28/10 9/28/10
f 28/28/10 30/28/10 21/28/10
f 30/28/10 4/28/10 21/28/10
f 30/28/10 27/28/10 4/28/10
f 27/28/10 16/28/10 4/28/10
f 27/28/10 29/28/10 16/28/10
f 29/28/10 25/28/10 16/28/10
f 25/28/16 39/28/16 31/28/16
f 21/28/11 20/28/11 10/28/11
f 25/28/10 1/28/10 16/28/10
f 5/7/10 15/8/10 49/8/10 47/7/10
f 48/4/10 19/20/10 50/20/10
f 19/20/11 5/7/11 47/7/11 50/20/11
f 15/8/10 3/30/10 45/30/10 49/8/10
f 19/28/5 50/28/5 47/28/5
f 19/28/5 47/28/5 5/28/5
f 5/28/1 47/28/1 49/28/1
f 5/28/1 49/28/1 15/28/1
f 15/28/1 49/28/1 45/28/1
f 15/28/1 45/28/1 3/28/1
